<?xml version="1.0" encoding="UTF-8" standalone="no"?>
<!DOCTYPE svg PUBLIC "-//W3C//DTD SVG 1.1//EN" "http://www.w3.org/Graphics/SVG/1.1/DTD/svg11.dtd">
<svg width="100%" height="100%" viewBox="0 0 54 54" version="1.1" xmlns="http://www.w3.org/2000/svg" xmlns:xlink="http://www.w3.org/1999/xlink" xml:space="preserve" xmlns:serif="http://www.serif.com/" style="fill-rule:evenodd;clip-rule:evenodd;stroke-linejoin:round;stroke-miterlimit:2;">
    <g transform="matrix(1,0,0,1,0,-2162)">
        <g id="Mesa-de-trabajo1" serif:id="Mesa de trabajo1" transform="matrix(0.03,0,0,0.03,0,2162)">
            <rect x="0" y="0" width="1800" height="1800" style="fill:none;"/>
            <g transform="matrix(1.61706,0,0,1.646436,352.433874,-133.333333)">
                <path d="M517.514,103.286L703.255,210.523L524.359,520.381L882.152,520.381L882.152,734.856L524.359,734.856L703.255,1044.713L517.514,1151.951L338.618,842.093L159.722,1151.951L-26.019,1044.713L152.877,734.856L-204.915,734.856L-204.915,520.381L152.877,520.381L-26.019,210.523L159.722,103.286L338.618,413.143L517.514,103.286Z" style="fill:rgb(255,0,0);"/>
            </g>
        </g>
    </g>
</svg>
