<?xml version="1.0" encoding="UTF-8" standalone="no"?>
<!DOCTYPE svg PUBLIC "-//W3C//DTD SVG 1.1//EN" "http://www.w3.org/Graphics/SVG/1.1/DTD/svg11.dtd">
<svg width="100%" height="100%" viewBox="0 0 1050 720" version="1.1" xmlns="http://www.w3.org/2000/svg" xmlns:xlink="http://www.w3.org/1999/xlink" xml:space="preserve" xmlns:serif="http://www.serif.com/" style="fill-rule:evenodd;clip-rule:evenodd;stroke-linecap:round;stroke-linejoin:round;stroke-miterlimit:1.5;">
    <g transform="matrix(1,0,0,1,-2019,-85)">
        <g id="Mesa-de-trabajo2" serif:id="Mesa de trabajo2" transform="matrix(0.583333,0,0,0.4,939.833333,85)">
            <rect x="1850" y="0" width="1800" height="1800" style="fill:none;"/>
            <clipPath id="_clip1">
                <rect x="1850" y="0" width="1800" height="1800"/>
            </clipPath>
            <g clip-path="url(#_clip1)">
                <g transform="matrix(-0,-2.5,2.5,-0,1637.5,6922.5)">
                    <path d="M2049,805L2049,85" style="fill:none;stroke:rgb(13,17,255);stroke-width:0.33px;"/>
                </g>
                <g transform="matrix(1.714286,0,0,2.5,-1354,-212.5)">
                    <path d="M2049,805L2049,85" style="fill:none;stroke:rgb(13,17,255);stroke-width:0.42px;"/>
                </g>
                <g transform="matrix(1.714286,0,0,2.5,-1302.571429,-212.5)">
                    <path d="M2049,805L2049,85" style="fill:none;stroke:rgb(13,17,255);stroke-width:0.42px;"/>
                </g>
                <g transform="matrix(1.714286,0,0,2.5,-942.571429,-212.5)">
                    <path d="M2049,805L2049,85" style="fill:none;stroke:rgb(13,17,255);stroke-width:0.42px;"/>
                </g>
                <g transform="matrix(1.714286,0,0,2.5,-582.571429,-212.5)">
                    <path d="M2049,805L2049,85" style="fill:none;stroke:rgb(13,17,255);stroke-width:0.42px;"/>
                </g>
                <g transform="matrix(1.714286,0,0,2.5,-222.571429,-212.5)">
                    <path d="M2049,805L2049,85" style="fill:none;stroke:rgb(13,17,255);stroke-width:0.42px;"/>
                </g>
                <g transform="matrix(1.714286,0,0,2.5,86,-212.5)">
                    <path d="M2049,805L2049,85" style="fill:none;stroke:rgb(13,17,255);stroke-width:0.42px;"/>
                </g>
                <g transform="matrix(1.714286,0,0,2.5,137.428571,-212.5)">
                    <path d="M2049,805L2049,85" style="fill:none;stroke:rgb(13,17,255);stroke-width:0.83px;"/>
                </g>
                <g transform="matrix(1.714286,0,0,2.5,-274,-212.5)">
                    <path d="M2049,805L2049,85" style="fill:none;stroke:rgb(13,17,255);stroke-width:0.42px;"/>
                </g>
                <g transform="matrix(1.714286,0,0,2.5,-634,-212.5)">
                    <path d="M2049,805L2049,85" style="fill:none;stroke:rgb(13,17,255);stroke-width:0.42px;"/>
                </g>
                <g transform="matrix(1.714286,0,0,2.5,-994,-212.5)">
                    <path d="M2049,805L2049,85" style="fill:none;stroke:rgb(13,17,255);stroke-width:0.42px;"/>
                </g>
                <g transform="matrix(-0,-2.5,2.5,-0,1637.5,6547.5)">
                    <path d="M2049,805L2049,85" style="fill:none;stroke:rgb(13,17,255);stroke-width:0.33px;"/>
                </g>
                <g transform="matrix(-0,-2.5,2.5,-0,1637.5,6097.5)">
                    <path d="M2049,805L2049,85" style="fill:none;stroke:rgb(13,17,255);stroke-width:0.33px;"/>
                </g>
                <g transform="matrix(-0,-2.5,2.5,-0,1637.5,5647.5)">
                    <path d="M2049,805L2049,85" style="fill:none;stroke:rgb(13,17,255);stroke-width:0.33px;"/>
                </g>
                <g transform="matrix(-0,-2.5,2.5,-0,1637.5,5197.5)">
                    <path d="M2049,805L2049,85" style="fill:none;stroke:rgb(13,17,255);stroke-width:0.33px;"/>
                </g>
                <g transform="matrix(-0,-2.5,2.5,-0,1637.5,5572.5)">
                    <path d="M2049,805L2049,85" style="fill:none;stroke:rgb(13,17,255);stroke-width:0.33px;"/>
                </g>
                <g transform="matrix(-0,-2.5,2.5,-0,1637.5,6022.5)">
                    <path d="M2049,805L2049,85" style="fill:none;stroke:rgb(13,17,255);stroke-width:0.33px;"/>
                </g>
                <g transform="matrix(-0,-2.5,2.5,-0,1637.5,6472.5)">
                    <path d="M2049,805L2049,85" style="fill:none;stroke:rgb(13,17,255);stroke-width:0.33px;"/>
                </g>
            </g>
        </g>
    </g>
</svg>
